<svg width="1600" height="900" viewBox="0 0 1600 900" fill="none" xmlns="http://www.w3.org/2000/svg">
  <defs>
    <linearGradient id="bg" x1="0" y1="0" x2="1600" y2="900" gradientUnits="userSpaceOnUse">
      <stop stop-color="#08111F"/>
      <stop offset="0.55" stop-color="#14213D"/>
      <stop offset="1" stop-color="#111827"/>
    </linearGradient>
    <linearGradient id="panel" x1="130" y1="110" x2="1420" y2="790" gradientUnits="userSpaceOnUse">
      <stop stop-color="#1D4ED8" stop-opacity="0.22"/>
      <stop offset="1" stop-color="#DC2626" stop-opacity="0.18"/>
    </linearGradient>
  </defs>
  <rect width="1600" height="900" fill="url(#bg)"/>
  <rect x="120" y="110" width="1360" height="680" rx="34" fill="url(#panel)" stroke="rgba(255,255,255,0.12)"/>
  <rect x="190" y="180" width="210" height="50" rx="25" fill="#DC2626" fill-opacity="0.18"/>
  <text x="228" y="213" fill="#FCA5A5" font-size="24" font-family="PingFang SC, Inter, sans-serif" font-weight="700">Apple 家庭共享避坑</text>
  <text x="190" y="320" fill="#FFFFFF" font-size="72" font-family="PingFang SC, Inter, sans-serif" font-weight="800">别用手机号给孩子注册</text>
  <text x="190" y="410" fill="#FFFFFF" font-size="72" font-family="PingFang SC, Inter, sans-serif" font-weight="800">Apple ID</text>
  <text x="190" y="492" fill="#CBD5E1" font-size="34" font-family="PingFang SC, Inter, sans-serif" font-weight="500">否则屏幕使用时间可能“设置成功，但设备完全不受控”</text>
  <rect x="190" y="565" width="620" height="112" rx="24" fill="rgba(15,23,42,0.74)" stroke="rgba(255,255,255,0.12)"/>
  <text x="230" y="612" fill="#93C5FD" font-size="28" font-family="PingFang SC, Inter, sans-serif" font-weight="700">两次真实踩坑后确认</text>
  <text x="230" y="654" fill="#E5E7EB" font-size="24" font-family="PingFang SC, Inter, sans-serif">儿童账号 + 家庭共享 + 屏幕使用时间</text>
  <g>
    <rect x="1090" y="190" width="230" height="470" rx="36" fill="#0B1220" stroke="#475569" stroke-width="4"/>
    <rect x="1122" y="254" width="165" height="24" rx="12" fill="#475569"/>
    <rect x="1122" y="314" width="118" height="18" rx="9" fill="#94A3B8" fill-opacity="0.65"/>
    <rect x="1122" y="360" width="165" height="78" rx="18" fill="#1E293B"/>
    <rect x="1122" y="465" width="165" height="78" rx="18" fill="#1E293B"/>
    <rect x="1122" y="572" width="165" height="34" rx="17" fill="#EF4444"/>
    <text x="1172" y="595" fill="#FFF" font-size="18" font-family="Inter, PingFang SC, sans-serif" font-weight="700">未生效</text>
    <circle cx="1340" cy="175" r="58" fill="#111827" stroke="#475569" stroke-width="4"/>
    <path d="M1313 175H1367" stroke="#F87171" stroke-width="10" stroke-linecap="round"/>
  </g>
  <text x="190" y="735" fill="#94A3B8" font-size="22" font-family="Inter, PingFang SC, sans-serif">JasonAir · iPad / Apple ID / Screen Time</text>
</svg>