<svg width="1200" height="630" viewBox="0 0 1200 630" xmlns="http://www.w3.org/2000/svg" role="img" aria-label="OpenClaw 实战封面图">
  <defs>
    <linearGradient id="bg" x1="0" y1="0" x2="1" y2="1">
      <stop offset="0%" stop-color="#0B1220"/>
      <stop offset="55%" stop-color="#1E3A8A"/>
      <stop offset="100%" stop-color="#0F766E"/>
    </linearGradient>
    <filter id="shadow" x="-50%" y="-50%" width="200%" height="200%">
      <feDropShadow dx="0" dy="8" stdDeviation="12" flood-color="#000" flood-opacity="0.35"/>
    </filter>
  </defs>
  <rect width="1200" height="630" fill="url(#bg)"/>
  <g opacity="0.18">
    <circle cx="1030" cy="90" r="180" fill="#67E8F9"/>
    <circle cx="180" cy="580" r="220" fill="#A78BFA"/>
  </g>
  <rect x="58" y="58" width="1084" height="514" rx="24" fill="rgba(255,255,255,0.08)" stroke="rgba(255,255,255,0.2)"/>

  <g transform="translate(88,96)" filter="url(#shadow)">
    <rect x="0" y="0" width="455" height="128" rx="14" fill="rgba(15,23,42,0.65)"/>
    <text x="28" y="52" fill="#E2E8F0" font-size="40" font-weight="700" font-family="-apple-system,BlinkMacSystemFont,Segoe UI,Roboto,Helvetica,Arial,sans-serif">OpenClaw 一天实战</text>
    <text x="28" y="96" fill="#BFDBFE" font-size="24" font-family="-apple-system,BlinkMacSystemFont,Segoe UI,Roboto,Helvetica,Arial,sans-serif">从聊天助手到可执行自动化</text>
  </g>

  <g transform="translate(92,270)">
    <rect x="0" y="0" width="210" height="82" rx="12" fill="#0EA5A5"/>
    <text x="20" y="49" fill="#ECFEFF" font-size="26" font-weight="700" font-family="-apple-system,BlinkMacSystemFont,Segoe UI,Roboto,Helvetica,Arial,sans-serif">WhatsApp</text>

    <rect x="260" y="0" width="210" height="82" rx="12" fill="#2563EB"/>
    <text x="280" y="49" fill="#EFF6FF" font-size="26" font-weight="700" font-family="-apple-system,BlinkMacSystemFont,Segoe UI,Roboto,Helvetica,Arial,sans-serif">RPA 任务</text>

    <rect x="520" y="0" width="210" height="82" rx="12" fill="#7C3AED"/>
    <text x="546" y="49" fill="#F5F3FF" font-size="26" font-weight="700" font-family="-apple-system,BlinkMacSystemFont,Segoe UI,Roboto,Helvetica,Arial,sans-serif">日报汇总</text>

    <rect x="780" y="0" width="240" height="82" rx="12" fill="#F59E0B"/>
    <text x="804" y="49" fill="#FFFBEB" font-size="26" font-weight="700" font-family="-apple-system,BlinkMacSystemFont,Segoe UI,Roboto,Helvetica,Arial,sans-serif">博客发布</text>
  </g>

  <text x="92" y="538" fill="#C7D2FE" font-size="22" font-family="-apple-system,BlinkMacSystemFont,Segoe UI,Roboto,Helvetica,Arial,sans-serif">workflow · scheduling · summary · publishing · 2026-02-11</text>
</svg>
